<svg width="24" height="24" viewBox="0 0 24 24" fill="none" xmlns="http://www.w3.org/2000/svg">
<path d="M7.822 15.77C8.134 16.518 8.858 17 9.667 17H17.306C18.134 17 18.887 16.479 19.179 15.703L21.936 8.351C22.051 8.043 22.008 7.7 21.822 7.43C21.635 7.161 21.328 7 21 7H6.333L4.923 3.615C4.768 3.243 4.404 3 4 3H2V5H3.333L7.822 15.77ZM19.557 9L17.307 15H9.667L7.167 9H19.557Z" fill="white"/>
<path d="M10.5 22C11.3284 22 12 21.3284 12 20.5C12 19.6716 11.3284 19 10.5 19C9.67157 19 9 19.6716 9 20.5C9 21.3284 9.67157 22 10.5 22Z" fill="white"/>
<path d="M16.438 22C17.2664 22 17.938 21.3284 17.938 20.5C17.938 19.6716 17.2664 19 16.438 19C15.6096 19 14.938 19.6716 14.938 20.5C14.938 21.3284 15.6096 22 16.438 22Z" fill="white"/>
</svg>
