<svg width="79" height="39" viewBox="0 0 79 39" fill="none" xmlns="http://www.w3.org/2000/svg">
<path d="M78.5 34C78.5 36.4853 76.4853 38.5 74 38.5L39.5 38.5L39.5 38.4673L39.5 38.379L39.5 38.2909L39.5 38.203L39.5 38.1151L39.5 38.0275L39.5 37.94L39.5 37.8526L39.5 37.7654L39.5 37.6783L39.5 37.5913L39.5 37.5045L39.5 37.4179L39.5 37.3314L39.5 37.245L39.5 37.1588L39.5 37.0727L39.5 36.9868L39.5 36.9009L39.5 36.8153L39.5 36.7297L39.5 36.6444L39.5 36.5591L39.5 36.474L39.5 36.389L39.5 36.3041L39.5 36.2194L39.5 36.1349L39.5 36.0504L39.5 35.9661L39.5 35.8819L39.5 35.7979L39.5 35.7139L39.5 35.6302L39.5 35.5465L39.5 35.463L39.5 35.3796L39.5 35.2963L39.5 35.2132L39.5 35.1301L39.5 35.0472L39.5 34.9645L39.5 34.8818L39.5 34.7993L39.5 34.7169L39.5 34.6347L39.5 34.5525L39.5 34.4705L39.5 34.3886L39.5 34.3068L39.5 34.2251L39.5 34.1436L39.5 34.0622L39.5 33.9809L39.5 33.8997L39.5 33.8186L39.5 33.7377L39.5 33.6568L39.5 33.5761L39.5 33.4955L39.5 33.415L39.5 33.3346L39.5 33.2544L39.5 33.1742L39.5 33.0942L39.5 33.0142L39.5 32.9344L39.5 32.8547L39.5 32.7751L39.5 32.6956L39.5 32.6162L39.5 32.5369L39.5 32.4578L39.5 32.3787L39.5 32.2998L39.5 32.2209L39.5 32.1422L39.5 32.0635L39.5 31.985L39.5 31.9066L39.5 31.8282L39.5 31.75L39.5 31.6719L39.5 31.5938L39.5 31.5159L39.5 31.4381L39.5 31.3603L39.5 31.2827L39.5 31.2052L39.5 31.1277L39.5 31.0504L39.5 30.9731L39.5 30.896L39.5 30.8189L39.5 30.742L39.5 30.6651L39.5 30.5883L39.5 30.5116L39.5 30.435L39.5 30.3585L39.5 30.2821L39.5 30.2058L39.5 30.1296L39.5 30.0534L39.5 29.9774L39.5 29.9014L39.5 29.8255L39.5 29.7497L39.5 29.674L39.5 29.5984L39.5 29.5228L39.5 29.4474L39.5 29.372L39.5 29.2967L39.5 29.2215L39.5 29.1464L39.5 29.0713L39.5 28.9963L39.5 28.9215L39.5 28.8466L39.5 28.7719L39.5 28.6973L39.5 28.6227L39.5 28.5482L39.5 28.4738L39.5 28.3994L39.5 28.3251L39.5 28.2509L39.5 28.1768L39.5 28.1028L39.5 28.0288L39.5 27.9549L39.5 27.881L39.5 27.8073L39.5 27.7336L39.5 27.6599L39.5 27.5864L39.5 27.5129L39.5 27.4395L39.5 27.3661L39.5 27.2928L39.5 27.2196L39.5 27.1464L39.5 27.0733L39.5 27.0003L39.5 26.9273L39.5 26.8544L39.5 26.7816L39.5 26.7088L39.5 26.6361L39.5 26.5634L39.5 26.4908L39.5 26.4183L39.5 26.3458L39.5 26.2734L39.5 26.201L39.5 26.1287L39.5 26.0565L39.5 25.9843L39.5 25.9121L39.5 25.84L39.5 25.768L39.5 25.696L39.5 25.6241L39.5 25.5522L39.5 25.4804L39.5 25.4086L39.5 25.3369L39.5 25.2652L39.5 25.1936L39.5 25.122L39.5 25.0505L39.5 24.979L39.5 24.9076L39.5 24.8362L39.5 24.7649L39.5 24.6936L39.5 24.6223L39.5 24.5511L39.5 24.4799L39.5 24.4088L39.5 24.3377L39.5 24.2667L39.5 24.1957L39.5 24.1247L39.5 24.0538L39.5 23.9829L39.5 23.9121L39.5 23.8413L39.5 23.7705L39.5 23.6998L39.5 23.6291L39.5 23.5584L39.5 23.4878L39.5 23.4172L39.5 23.3466L39.5 23.2761L39.5 23.2056L39.5 23.1352L39.5 23.0647L39.5 22.9943L39.5 22.924L39.5 22.8536L39.5 22.7833L39.5 22.713L39.5 22.6428L39.5 22.5725L39.5 22.5023L39.5 22.4322L39.5 22.362L39.5 22.2919L39.5 22.2218L39.5 22.1517L39.5 22.0816L39.5 22.0116L39.5 21.9416L39.5 21.8716L39.5 21.8016L39.5 21.7317L39.5 21.6617L39.5 21.5918L39.5 21.5219L39.5 21.452L39.5 21.3822L39.5 21.3123L39.5 21.2425L39.5 21.1727L39.5 21.1029L39.5 21.0331L39.5 20.9633L39.5 20.8935L39.5 20.8238L39.5 20.7541L39.5 20.6843L39.5 20.6146L39.5 20.5449L39.5 20.4752L39.5 20.4055L39.5 20.3358L39.5 20.2661L39.5 20.1965L39.5 20.1268L39.5 20.0571L39.5 19.9875L39.5 19.9178L39.5 19.8482L39.5 19.7786L39.5 19.7089L39.5 19.6393L39.5 19.5696L39.5 19.5L39.5 19.4304L39.5 19.3607L39.5 19.2911L39.5 19.2214L39.5 19.1518L39.5 19.0822L39.5 19.0125L39.5 18.9428L39.5 18.8732L39.5 18.8035L39.5 18.7339L39.5 18.6642L39.5 18.5945L39.5 18.5248L39.5 18.4551L39.5 18.3854L39.5 18.3157L39.5 18.2459L39.5 18.1762L39.5 18.1065L39.5 18.0367L39.5 17.9669L39.5 17.8971L39.5 17.8273L39.5 17.7575L39.5 17.6877L39.5 17.6178L39.5 17.548L39.5 17.4781L39.5 17.4082L39.5 17.3383L39.5 17.2683L39.5 17.1984L39.5 17.1284L39.5 17.0584L39.5 16.9884L39.5 16.9184L39.5 16.8483L39.5 16.7782L39.5 16.7081L39.5 16.638L39.5 16.5678L39.5 16.4977L39.5 16.4275L39.5 16.3572L39.5 16.287L39.5 16.2167L39.5 16.1464L39.5 16.076L39.5 16.0057L39.5 15.9353L39.5 15.8648L39.5 15.7944L39.5 15.7239L39.5 15.6534L39.5 15.5828L39.5 15.5122L39.5 15.4416L39.5 15.3709L39.5 15.3002L39.5 15.2295L39.5 15.1587L39.5 15.0879L39.5 15.0171L39.5 14.9462L39.5 14.8753L39.5 14.8043L39.5 14.7333L39.5 14.6623L39.5 14.5912L39.5 14.5201L39.5 14.4489L39.5 14.3777L39.5 14.3064L39.5 14.2351L39.5 14.1638L39.5 14.0924L39.5 14.021L39.5 13.9495L39.5 13.878L39.5 13.8064L39.5 13.7348L39.5 13.6631L39.5 13.5914L39.5 13.5196L39.5 13.4478L39.5 13.3759L39.5 13.304L39.5 13.232L39.5 13.1599L39.5 13.0879L39.5 13.0157L39.5 12.9435L39.5 12.8713L39.5 12.799L39.5 12.7266L39.5 12.6542L39.5 12.5817L39.5 12.5092L39.5 12.4366L39.5 12.3639L39.5 12.2912L39.5 12.2184L39.5 12.1456L39.5 12.0727L39.5 11.9997L39.5 11.9267L39.5 11.8536L39.5 11.7804L39.5 11.7072L39.5 11.6339L39.5 11.5605L39.5 11.4871L39.5 11.4136L39.5 11.3401L39.5 11.2664L39.5 11.1927L39.5 11.119L39.5 11.0451L39.5 10.9712L39.5 10.8972L39.5 10.8232L39.5 10.7491L39.5 10.6749L39.5 10.6006L39.5 10.5262L39.5 10.4518L39.5 10.3773L39.5 10.3027L39.5 10.2281L39.5 10.1534L39.5 10.0785L39.5 10.0037L39.5 9.92868L39.5 9.85363L39.5 9.77851L39.5 9.7033L39.5 9.628L39.5 9.55263L39.5 9.47717L39.5 9.40163L39.5 9.326L39.5 9.25029L39.5 9.17449L39.5 9.09861L39.5 9.02264L39.5 8.94658L39.5 8.87043L39.5 8.7942L39.5 8.71788L39.5 8.64146L39.5 8.56496L39.5 8.48837L39.5 8.41168L39.5 8.33491L39.5 8.25804L39.5 8.18107L39.5 8.10401L39.5 8.02686L39.5 7.94961L39.5 7.87227L39.5 7.79483L39.5 7.7173L39.5 7.63966L39.5 7.56193L39.5 7.4841L39.5 7.40617L39.5 7.32814L39.5 7.25001L39.5 7.17178L39.5 7.09345L39.5 7.01501L39.5 6.93647L39.5 6.85783L39.5 6.77908L39.5 6.70023L39.5 6.62128L39.5 6.54222L39.5 6.46305L39.5 6.38377L39.5 6.30439L39.5 6.2249L39.5 6.1453L39.5 6.06559L39.5 5.98577L39.5 5.90584L39.5 5.8258L39.5 5.74564L39.5 5.66538L39.5 5.585L39.5 5.50451L39.5 5.4239L39.5 5.34318L39.5 5.26234L39.5 5.18139L39.5 5.10032L39.5 5.01913L39.5 4.93782L39.5 4.8564L39.5 4.77486L39.5 4.6932L39.5 4.61141L39.5 4.52951L39.5 4.44748L39.5 4.36534L39.5 4.28307L39.5 4.20068L39.5 4.11816L39.5 4.03552L39.5 3.95275L39.5 3.86986L39.5 3.78684L39.5 3.7037L39.5 3.62042L39.5 3.53703L39.5 3.4535L39.5 3.36984L39.5 3.28605L39.5 3.20213L39.5 3.11808L39.5 3.0339L39.5 2.94959L39.5 2.86514L39.5 2.78056L39.5 2.69585L39.5 2.611L39.5 2.52602L39.5 2.4409L39.5 2.35564L39.5 2.27025L39.5 2.18472L39.5 2.09905L39.5 2.01324L39.5 1.9273L39.5 1.84121L39.5 1.75499L39.5 1.66862L39.5 1.58211L39.5 1.49545L39.5 1.40866L39.5 1.32172L39.5 1.23464L39.5 1.14741L39.5 1.06004L39.5 0.972515L39.5 0.88485L39.5 0.797039L39.5 0.709076L39.5 0.620968L39.5 0.532711L39.5 0.5L74 0.500003C76.4853 0.500004 78.5 2.51472 78.5 5L78.5 34Z" stroke="#E5E5E5"/>
<path d="M0.5 5C0.5 2.51472 2.51472 0.5 5 0.5L39.5 0.5V0.53271V0.620968V0.709077V0.797038V0.884851V0.972517V1.06004V1.14741V1.23464V1.32172V1.40866V1.49545V1.58211V1.66862V1.75499V1.84121V1.9273V2.01325V2.09905V2.18472V2.27025V2.35564V2.4409V2.52602V2.611V2.69585V2.78056V2.86514V2.94959V3.0339V3.11808V3.20213V3.28605V3.36984V3.4535V3.53702V3.62042V3.7037V3.78684V3.86986V3.95275V4.03552V4.11816V4.20068V4.28307V4.36534V4.44748V4.52951V4.61141V4.6932V4.77486V4.8564V4.93782V5.01913V5.10032V5.18139V5.26234V5.34318V5.4239V5.50451V5.585V5.66538V5.74564V5.8258V5.90584V5.98577V6.06559V6.1453V6.2249V6.30439V6.38377V6.46305V6.54222V6.62128V6.70023V6.77909V6.85783V6.93647V7.01501V7.09345V7.17178V7.25001V7.32814V7.40617V7.4841V7.56193V7.63966V7.7173V7.79483V7.87227V7.94962V8.02686V8.10401V8.18107V8.25804V8.33491V8.41168V8.48837V8.56496V8.64147V8.71788V8.7942V8.87044V8.94658V9.02264V9.09861V9.17449V9.25029V9.326V9.40163V9.47717V9.55263V9.628V9.70329V9.77851V9.85364V9.92868V10.0037V10.0785V10.1534V10.2281V10.3027V10.3773V10.4518V10.5262V10.6006V10.6749V10.7491V10.8232V10.8972V10.9712V11.0451V11.119V11.1927V11.2664V11.3401V11.4136V11.4871V11.5605V11.6339V11.7072V11.7804V11.8536V11.9267V11.9997V12.0727V12.1456V12.2184V12.2912V12.3639V12.4366V12.5092V12.5817V12.6542V12.7266V12.799V12.8713V12.9435V13.0157V13.0879V13.16V13.232V13.304V13.3759V13.4478V13.5196V13.5914V13.6631V13.7348V13.8064V13.878V13.9495V14.021V14.0924V14.1638V14.2351V14.3064V14.3777V14.4489V14.5201V14.5912V14.6623V14.7333V14.8043V14.8753V14.9462V15.0171V15.0879V15.1587V15.2295V15.3002V15.3709V15.4416V15.5122V15.5828V15.6534V15.7239V15.7944V15.8648V15.9353V16.0057V16.076V16.1464V16.2167V16.287V16.3572V16.4275V16.4977V16.5678V16.638V16.7081V16.7782V16.8483V16.9184V16.9884V17.0584V17.1284V17.1984V17.2683V17.3383V17.4082V17.4781V17.548V17.6178V17.6877V17.7575V17.8273V17.8971V17.9669V18.0367V18.1065V18.1762V18.2459V18.3157V18.3854V18.4551V18.5248V18.5945V18.6642V18.7339V18.8035V18.8732V18.9429V19.0125V19.0822V19.1518V19.2214V19.2911V19.3607V19.4304V19.5V19.5696V19.6393V19.7089V19.7786V19.8482V19.9178V19.9875V20.0571V20.1268V20.1965V20.2661V20.3358V20.4055V20.4752V20.5449V20.6146V20.6843V20.7541V20.8238V20.8935V20.9633V21.0331V21.1029V21.1727V21.2425V21.3123V21.3822V21.452V21.5219V21.5918V21.6617V21.7317V21.8016V21.8716V21.9416V22.0116V22.0816V22.1517V22.2218V22.2919V22.362V22.4322V22.5023V22.5725V22.6428V22.713V22.7833V22.8536V22.924V22.9943V23.0647V23.1352V23.2056V23.2761V23.3466V23.4172V23.4878V23.5584V23.6291V23.6998V23.7705V23.8413V23.9121V23.9829V24.0538V24.1247V24.1957V24.2667V24.3377V24.4088V24.4799V24.5511V24.6223V24.6936V24.7649V24.8362V24.9076V24.979V25.0505V25.122V25.1936V25.2652V25.3369V25.4086V25.4804V25.5522V25.6241V25.696V25.768V25.84V25.9121V25.9843V26.0565V26.1287V26.201V26.2734V26.3458V26.4183V26.4908V26.5634V26.6361V26.7088V26.7816V26.8544V26.9273V27.0003V27.0733V27.1464V27.2196V27.2928V27.3661V27.4395V27.5129V27.5864V27.6599V27.7336V27.8073V27.881V27.9549V28.0288V28.1028V28.1768V28.2509V28.3251V28.3994V28.4738V28.5482V28.6227V28.6973V28.7719V28.8466V28.9215V28.9963L39.5 29.0713V29.1464V29.2215V29.2967V29.372V29.4474V29.5228V29.5984V29.674V29.7497V29.8255V29.9014V29.9774V30.0534V30.1296V30.2058V30.2821V30.3585V30.435V30.5116V30.5883V30.6651V30.742V30.8189V30.896V30.9731V31.0504V31.1277V31.2052V31.2827V31.3603V31.4381V31.5159V31.5938V31.6719V31.75V31.8282V31.9066V31.985V32.0635V32.1422V32.2209V32.2998V32.3787V32.4578V32.537V32.6162V32.6956V32.7751V32.8547V32.9344V33.0142V33.0942V33.1742V33.2544V33.3346V33.415V33.4955V33.5761V33.6568V33.7377V33.8186V33.8997V33.9809V34.0622V34.1436V34.2251V34.3068V34.3886V34.4705V34.5525V34.6347V34.7169V34.7993V34.8818V34.9645V35.0472V35.1301V35.2132V35.2963V35.3796V35.463V35.5465V35.6302V35.714V35.7979V35.8819V35.9661V36.0504V36.1349V36.2194V36.3041V36.389V36.474V36.5591V36.6444V36.7297V36.8153V36.9009V36.9868V37.0727V37.1588V37.245V37.3314V37.4179V37.5045V37.5913V37.6783V37.7654V37.8526V37.94V38.0275V38.1152V38.203V38.2909V38.379V38.4673V38.5L5 38.5C2.51472 38.5 0.5 36.4853 0.5 34L0.5 5Z" stroke="#E5E5E5"/>
<path d="M22 11L13 19.5L22 28" stroke="#4D4D4D" stroke-width="2" stroke-linecap="round" stroke-linejoin="round"/>
<path d="M55 28L64 19.5L55 11" stroke="#4D4D4D" stroke-width="2" stroke-linecap="round" stroke-linejoin="round"/>
</svg>
