<svg width="40" height="39" viewBox="0 0 40 39" fill="none" xmlns="http://www.w3.org/2000/svg">
<path d="M39.5 34C39.5 36.4853 37.4853 38.5 35 38.5L0.499996 38.5L0.499996 38.4673L0.499996 38.379L0.499996 38.2909L0.499996 38.203L0.499996 38.1151L0.499996 38.0275L0.499996 37.94L0.499996 37.8526L0.499996 37.7654L0.499996 37.6783L0.499996 37.5913L0.499996 37.5045L0.499996 37.4179L0.499996 37.3314L0.499996 37.245L0.499996 37.1588L0.499996 37.0727L0.499996 36.9868L0.499996 36.9009L0.499996 36.8153L0.499996 36.7297L0.499996 36.6444L0.499996 36.5591L0.499996 36.474L0.499996 36.389L0.499996 36.3041L0.499996 36.2194L0.499996 36.1349L0.499996 36.0504L0.499996 35.9661L0.499996 35.8819L0.499996 35.7979L0.499996 35.7139L0.499996 35.6302L0.499996 35.5465L0.499996 35.463L0.499997 35.3796L0.499997 35.2963L0.499997 35.2132L0.499997 35.1301L0.499997 35.0472L0.499997 34.9645L0.499997 34.8818L0.499997 34.7993L0.499997 34.7169L0.499997 34.6347L0.499997 34.5525L0.499997 34.4705L0.499997 34.3886L0.499997 34.3068L0.499997 34.2251L0.499997 34.1436L0.499997 34.0622L0.499997 33.9809L0.499997 33.8997L0.499997 33.8186L0.499997 33.7377L0.499997 33.6568L0.499997 33.5761L0.499997 33.4955L0.499997 33.415L0.499997 33.3346L0.499997 33.2544L0.499997 33.1742L0.499997 33.0942L0.499997 33.0142L0.499997 32.9344L0.499997 32.8547L0.499997 32.7751L0.499997 32.6956L0.499997 32.6162L0.499997 32.5369L0.499997 32.4578L0.499997 32.3787L0.499997 32.2998L0.499997 32.2209L0.499997 32.1422L0.499997 32.0635L0.499997 31.985L0.499997 31.9066L0.499997 31.8282L0.499997 31.75L0.499997 31.6719L0.499997 31.5938L0.499997 31.5159L0.499997 31.4381L0.499997 31.3603L0.499997 31.2827L0.499997 31.2052L0.499997 31.1277L0.499997 31.0504L0.499997 30.9731L0.499997 30.896L0.499997 30.8189L0.499997 30.742L0.499997 30.6651L0.499997 30.5883L0.499997 30.5116L0.499997 30.435L0.499997 30.3585L0.499997 30.2821L0.499997 30.2058L0.499997 30.1296L0.499997 30.0534L0.499997 29.9774L0.499997 29.9014L0.499997 29.8255L0.499997 29.7497L0.499997 29.674L0.499997 29.5984L0.499997 29.5228L0.499997 29.4474L0.499997 29.372L0.499997 29.2967L0.499997 29.2215L0.499997 29.1464L0.499997 29.0713L0.499997 28.9963L0.499997 28.9215L0.499997 28.8466L0.499997 28.7719L0.499997 28.6973L0.499997 28.6227L0.499997 28.5482L0.499997 28.4738L0.499997 28.3994L0.499997 28.3251L0.499997 28.2509L0.499997 28.1768L0.499997 28.1028L0.499997 28.0288L0.499997 27.9549L0.499997 27.881L0.499997 27.8073L0.499997 27.7336L0.499997 27.6599L0.499997 27.5864L0.499997 27.5129L0.499997 27.4395L0.499997 27.3661L0.499997 27.2928L0.499997 27.2196L0.499997 27.1464L0.499997 27.0733L0.499997 27.0003L0.499997 26.9273L0.499997 26.8544L0.499997 26.7816L0.499997 26.7088L0.499997 26.6361L0.499997 26.5634L0.499997 26.4908L0.499997 26.4183L0.499997 26.3458L0.499997 26.2734L0.499997 26.201L0.499997 26.1287L0.499997 26.0565L0.499997 25.9843L0.499997 25.9121L0.499997 25.84L0.499997 25.768L0.499997 25.696L0.499997 25.6241L0.499997 25.5522L0.499997 25.4804L0.499997 25.4086L0.499997 25.3369L0.499997 25.2652L0.499997 25.1936L0.499997 25.122L0.499997 25.0505L0.499997 24.979L0.499997 24.9076L0.499997 24.8362L0.499997 24.7649L0.499997 24.6936L0.499997 24.6223L0.499997 24.5511L0.499997 24.4799L0.499997 24.4088L0.499997 24.3377L0.499997 24.2667L0.499997 24.1957L0.499997 24.1247L0.499997 24.0538L0.499997 23.9829L0.499998 23.9121L0.499998 23.8413L0.499998 23.7705L0.499998 23.6998L0.499998 23.6291L0.499998 23.5584L0.499998 23.4878L0.499998 23.4172L0.499998 23.3466L0.499998 23.2761L0.499998 23.2056L0.499998 23.1352L0.499998 23.0647L0.499998 22.9943L0.499998 22.924L0.499998 22.8536L0.499998 22.7833L0.499998 22.713L0.499998 22.6428L0.499998 22.5725L0.499998 22.5023L0.499998 22.4322L0.499998 22.362L0.499998 22.2919L0.499998 22.2218L0.499998 22.1517L0.499998 22.0816L0.499998 22.0116L0.499998 21.9416L0.499998 21.8716L0.499998 21.8016L0.499998 21.7317L0.499998 21.6617L0.499998 21.5918L0.499998 21.5219L0.499998 21.452L0.499998 21.3822L0.499998 21.3123L0.499998 21.2425L0.499998 21.1727L0.499998 21.1029L0.499998 21.0331L0.499998 20.9633L0.499998 20.8935L0.499998 20.8238L0.499998 20.7541L0.499998 20.6843L0.499998 20.6146L0.499998 20.5449L0.499998 20.4752L0.499998 20.4055L0.499998 20.3358L0.499998 20.2661L0.499998 20.1965L0.499998 20.1268L0.499998 20.0571L0.499998 19.9875L0.499998 19.9178L0.499998 19.8482L0.499998 19.7786L0.499998 19.7089L0.499998 19.6393L0.499998 19.5696L0.499998 19.5L0.499998 19.4304L0.499998 19.3607L0.499998 19.2911L0.499998 19.2214L0.499998 19.1518L0.499998 19.0822L0.499998 19.0125L0.499998 18.9428L0.499998 18.8732L0.499998 18.8035L0.499998 18.7339L0.499998 18.6642L0.499998 18.5945L0.499998 18.5248L0.499998 18.4551L0.499998 18.3854L0.499998 18.3157L0.499998 18.2459L0.499998 18.1762L0.499998 18.1065L0.499998 18.0367L0.499998 17.9669L0.499998 17.8971L0.499998 17.8273L0.499998 17.7575L0.499998 17.6877L0.499998 17.6178L0.499998 17.548L0.499998 17.4781L0.499998 17.4082L0.499998 17.3383L0.499998 17.2683L0.499998 17.1984L0.499998 17.1284L0.499998 17.0584L0.499998 16.9884L0.499998 16.9184L0.499998 16.8483L0.499998 16.7782L0.499998 16.7081L0.499998 16.638L0.499998 16.5678L0.499998 16.4977L0.499998 16.4275L0.499998 16.3572L0.499998 16.287L0.499998 16.2167L0.499998 16.1464L0.499998 16.076L0.499998 16.0057L0.499998 15.9353L0.499998 15.8648L0.499998 15.7944L0.499998 15.7239L0.499998 15.6534L0.499998 15.5828L0.499998 15.5122L0.499998 15.4416L0.499998 15.3709L0.499998 15.3002L0.499998 15.2295L0.499998 15.1587L0.499998 15.0879L0.499998 15.0171L0.499998 14.9462L0.499998 14.8753L0.499998 14.8043L0.499998 14.7333L0.499998 14.6623L0.499998 14.5912L0.499998 14.5201L0.499998 14.4489L0.499998 14.3777L0.499998 14.3064L0.499998 14.2351L0.499998 14.1638L0.499998 14.0924L0.499998 14.021L0.499998 13.9495L0.499998 13.878L0.499998 13.8064L0.499998 13.7348L0.499998 13.6631L0.499998 13.5914L0.499998 13.5196L0.499998 13.4478L0.499998 13.3759L0.499998 13.304L0.499998 13.232L0.499998 13.1599L0.499998 13.0879L0.499998 13.0157L0.499998 12.9435L0.499998 12.8713L0.499998 12.799L0.499998 12.7266L0.499998 12.6542L0.499998 12.5817L0.499999 12.5092L0.499999 12.4366L0.499999 12.3639L0.499999 12.2912L0.499999 12.2184L0.499999 12.1456L0.499999 12.0727L0.499999 11.9997L0.499999 11.9267L0.499999 11.8536L0.499999 11.7804L0.499999 11.7072L0.499999 11.6339L0.499999 11.5605L0.499999 11.4871L0.499999 11.4136L0.499999 11.3401L0.499999 11.2664L0.499999 11.1927L0.499999 11.119L0.499999 11.0451L0.499999 10.9712L0.499999 10.8972L0.499999 10.8232L0.499999 10.7491L0.499999 10.6749L0.499999 10.6006L0.499999 10.5262L0.499999 10.4518L0.499999 10.3773L0.499999 10.3027L0.499999 10.2281L0.499999 10.1534L0.499999 10.0785L0.499999 10.0037L0.499999 9.92868L0.499999 9.85363L0.499999 9.77851L0.499999 9.7033L0.499999 9.628L0.499999 9.55263L0.499999 9.47717L0.499999 9.40163L0.499999 9.326L0.499999 9.25029L0.499999 9.17449L0.499999 9.09861L0.499999 9.02264L0.499999 8.94658L0.499999 8.87043L0.499999 8.7942L0.499999 8.71788L0.499999 8.64146L0.499999 8.56496L0.499999 8.48837L0.499999 8.41168L0.499999 8.33491L0.499999 8.25804L0.499999 8.18107L0.499999 8.10401L0.499999 8.02686L0.499999 7.94961L0.499999 7.87227L0.499999 7.79483L0.499999 7.7173L0.499999 7.63966L0.499999 7.56193L0.499999 7.4841L0.499999 7.40617L0.499999 7.32814L0.499999 7.25001L0.499999 7.17178L0.499999 7.09345L0.499999 7.01501L0.499999 6.93647L0.499999 6.85783L0.499999 6.77908L0.499999 6.70023L0.499999 6.62128L0.499999 6.54222L0.499999 6.46305L0.499999 6.38377L0.499999 6.30439L0.499999 6.2249L0.499999 6.1453L0.499999 6.06559L0.499999 5.98577L0.499999 5.90584L0.499999 5.8258L0.499999 5.74564L0.499999 5.66538L0.499999 5.585L0.499999 5.50451L0.499999 5.4239L0.499999 5.34318L0.499999 5.26234L0.499999 5.18139L0.499999 5.10032L0.499999 5.01913L0.499999 4.93782L0.499999 4.8564L0.499999 4.77486L0.499999 4.6932L0.499999 4.61141L0.499999 4.52951L0.499999 4.44748L0.499999 4.36534L0.499999 4.28307L0.499999 4.20068L0.499999 4.11816L0.499999 4.03552L0.499999 3.95275L0.499999 3.86986L0.499999 3.78684L0.499999 3.7037L0.499999 3.62042L0.499999 3.53703L0.499999 3.4535L0.499999 3.36984L0.499999 3.28605L0.499999 3.20213L0.499999 3.11808L0.499999 3.0339L0.499999 2.94959L0.499999 2.86514L0.499999 2.78056L0.499999 2.69585L0.499999 2.611L0.499999 2.52602L0.499999 2.4409L0.499999 2.35564L0.499999 2.27025L0.499999 2.18472L0.499999 2.09905L0.499999 2.01324L0.499999 1.9273L0.499999 1.84121L0.499999 1.75499L0.499999 1.66862L0.499999 1.58211L0.499999 1.49545L0.499999 1.40866L0.499999 1.32172L0.499999 1.23464L0.499999 1.14741L0.5 1.06004L0.5 0.972515L0.5 0.88485L0.5 0.797039L0.5 0.709076L0.5 0.620968L0.5 0.532711L0.5 0.5L35 0.500003C37.4853 0.500004 39.5 2.51472 39.5 5L39.5 34Z" stroke="#E5E5E5"/>
</svg>
