<svg width="40" height="39" viewBox="0 0 40 39" fill="none" xmlns="http://www.w3.org/2000/svg">
<path d="M0.5 5C0.5 2.51472 2.51472 0.5 5 0.5L39.5 0.5V0.53271V0.620968V0.709077V0.797038V0.884851V0.972517V1.06004V1.14741V1.23464V1.32172V1.40866V1.49545V1.58211V1.66862V1.75499V1.84121V1.9273V2.01325V2.09905V2.18472V2.27025V2.35564V2.4409V2.52602V2.611V2.69585V2.78056V2.86514V2.94959V3.0339V3.11808V3.20213V3.28605V3.36984V3.4535V3.53702V3.62042V3.7037V3.78684V3.86986V3.95275V4.03552V4.11816V4.20068V4.28307V4.36534V4.44748V4.52951V4.61141V4.6932V4.77486V4.8564V4.93782V5.01913V5.10032V5.18139V5.26234V5.34318V5.4239V5.50451V5.585V5.66538V5.74564V5.8258V5.90584V5.98577V6.06559V6.1453V6.2249V6.30439V6.38377V6.46305V6.54222V6.62128V6.70023V6.77909V6.85783V6.93647V7.01501V7.09345V7.17178V7.25001V7.32814V7.40617V7.4841V7.56193V7.63966V7.7173V7.79483V7.87227V7.94962V8.02686V8.10401V8.18107V8.25804V8.33491V8.41168V8.48837V8.56496V8.64147V8.71788V8.7942V8.87044V8.94658V9.02264V9.09861V9.17449V9.25029V9.326V9.40163V9.47717V9.55263V9.628V9.70329V9.77851V9.85364V9.92868V10.0037V10.0785V10.1534V10.2281V10.3027V10.3773V10.4518V10.5262V10.6006V10.6749V10.7491V10.8232V10.8972V10.9712V11.0451V11.119V11.1927V11.2664V11.3401V11.4136V11.4871V11.5605V11.6339V11.7072V11.7804V11.8536V11.9267V11.9997V12.0727V12.1456V12.2184V12.2912V12.3639V12.4366V12.5092V12.5817V12.6542V12.7266V12.799V12.8713V12.9435V13.0157V13.0879V13.16V13.232V13.304V13.3759V13.4478V13.5196V13.5914V13.6631V13.7348V13.8064V13.878V13.9495V14.021V14.0924V14.1638V14.2351V14.3064V14.3777V14.4489V14.5201V14.5912V14.6623V14.7333V14.8043V14.8753V14.9462V15.0171V15.0879V15.1587V15.2295V15.3002V15.3709V15.4416V15.5122V15.5828V15.6534V15.7239V15.7944V15.8648V15.9353V16.0057V16.076V16.1464V16.2167V16.287V16.3572V16.4275V16.4977V16.5678V16.638V16.7081V16.7782V16.8483V16.9184V16.9884V17.0584V17.1284V17.1984V17.2683V17.3383V17.4082V17.4781V17.548V17.6178V17.6877V17.7575V17.8273V17.8971V17.9669V18.0367V18.1065V18.1762V18.2459V18.3157V18.3854V18.4551V18.5248V18.5945V18.6642V18.7339V18.8035V18.8732V18.9429V19.0125V19.0822V19.1518V19.2214V19.2911V19.3607V19.4304V19.5V19.5696V19.6393V19.7089V19.7786V19.8482V19.9178V19.9875V20.0571V20.1268V20.1965V20.2661V20.3358V20.4055V20.4752V20.5449V20.6146V20.6843V20.7541V20.8238V20.8935V20.9633V21.0331V21.1029V21.1727V21.2425V21.3123V21.3822V21.452V21.5219V21.5918V21.6617V21.7317V21.8016V21.8716V21.9416V22.0116V22.0816V22.1517V22.2218V22.2919V22.362V22.4322V22.5023V22.5725V22.6428V22.713V22.7833V22.8536V22.924V22.9943V23.0647V23.1352V23.2056V23.2761V23.3466V23.4172V23.4878V23.5584V23.6291V23.6998V23.7705V23.8413V23.9121V23.9829V24.0538V24.1247V24.1957V24.2667V24.3377V24.4088V24.4799V24.5511V24.6223V24.6936V24.7649V24.8362V24.9076V24.979V25.0505V25.122V25.1936V25.2652V25.3369V25.4086V25.4804V25.5522V25.6241V25.696V25.768V25.84V25.9121V25.9843V26.0565V26.1287V26.201V26.2734V26.3458V26.4183V26.4908V26.5634V26.6361V26.7088V26.7816V26.8544V26.9273V27.0003V27.0733V27.1464V27.2196V27.2928V27.3661V27.4395V27.5129V27.5864V27.6599V27.7336V27.8073V27.881V27.9549V28.0288V28.1028V28.1768V28.2509V28.3251V28.3994V28.4738V28.5482V28.6227V28.6973V28.7719V28.8466V28.9215V28.9963L39.5 29.0713V29.1464V29.2215V29.2967V29.372V29.4474V29.5228V29.5984V29.674V29.7497V29.8255V29.9014V29.9774V30.0534V30.1296V30.2058V30.2821V30.3585V30.435V30.5116V30.5883V30.6651V30.742V30.8189V30.896V30.9731V31.0504V31.1277V31.2052V31.2827V31.3603V31.4381V31.5159V31.5938V31.6719V31.75V31.8282V31.9066V31.985V32.0635V32.1422V32.2209V32.2998V32.3787V32.4578V32.537V32.6162V32.6956V32.7751V32.8547V32.9344V33.0142V33.0942V33.1742V33.2544V33.3346V33.415V33.4955V33.5761V33.6568V33.7377V33.8186V33.8997V33.9809V34.0622V34.1436V34.2251V34.3068V34.3886V34.4705V34.5525V34.6347V34.7169V34.7993V34.8818V34.9645V35.0472V35.1301V35.2132V35.2963V35.3796V35.463V35.5465V35.6302V35.714V35.7979V35.8819V35.9661V36.0504V36.1349V36.2194V36.3041V36.389V36.474V36.5591V36.6444V36.7297V36.8153V36.9009V36.9868V37.0727V37.1588V37.245V37.3314V37.4179V37.5045V37.5913V37.6783V37.7654V37.8526V37.94V38.0275V38.1152V38.203V38.2909V38.379V38.4673V38.5L5 38.5C2.51472 38.5 0.5 36.4853 0.5 34L0.5 5Z" stroke="#E5E5E5"/>
</svg>
